<?xml version="1.0" encoding="UTF-8" standalone="no"?>
<svg
   xmlns:dc="http://purl.org/dc/elements/1.1/"
   xmlns:cc="http://creativecommons.org/ns#"
   xmlns:rdf="http://www.w3.org/1999/02/22-rdf-syntax-ns#"
   xmlns:svg="http://www.w3.org/2000/svg"
   xmlns="http://www.w3.org/2000/svg"
   xmlns:sodipodi="http://sodipodi.sourceforge.net/DTD/sodipodi-0.dtd"
   xmlns:inkscape="http://www.inkscape.org/namespaces/inkscape"
   width="166"
   height="45"
   viewBox="0 0 43.920843 11.90625"
   version="1.1"
   id="svg8"
   sodipodi:docname="drawing-1.svg"
   inkscape:version="1.0.1 (3bc2e813f5, 2020-09-07)"
   inkscape:export-filename="/home/wularmotors/logo.png"
   inkscape:export-xdpi="96"
   inkscape:export-ydpi="96">
  <defs
     id="defs2">
    <symbol
       id="symbol1596"
       viewBox="0 0 576.44501 577.45154">
      <title
         id="title1590">cricket</title>
      <path
         d="M 64.571,0.06355556 C 23.236,0.06355556 0,21.434556 0,65.099556 V 515.22256 c 0,40.844 20.895,62.229 62.192,62.229 h 452.024 c 41.307,0 62.229,-20.315 62.229,-62.229 V 65.099556 c 0,-42.601 -20.922,-65.03600044 -63.521,-65.03600044 -0.004,0 -448.495,-0.143 -448.353,0 z"
         id="path1592" />
      <path
         fill="#ffffff"
         d="m 170.54209,28.145165 a 2.1568998,2.1568998 0 0 0 -1.03906,0.298829 l -11.22851,6.628906 -5.79102,3.419922 -11.25391,6.644531 a 2.1568998,2.1568998 0 0 0 -0.82812,2.828125 l 63.91406,126.582032 a 2.1568998,2.1568998 0 0 0 2.13086,1.17383 l 11.01563,-1.04883 7.23632,12.88867 a 21.56882,21.56882 0 0 0 2.19141,20.00196 l 36.83203,56.17187 a 21.56882,21.56882 0 0 0 26.7168,7.91602 l 27.04687,-11.89453 38.02344,101.02344 a 33.551775,33.551775 0 0 0 10.3125,14.56835 v 146.16797 a 26.36211,26.36211 0 1 0 52.71875,0 v -160.5 a 33.551775,33.551775 0 0 0 -0.0723,-23.4082 26.36211,26.36211 0 0 0 -5.38477,-14.33594 L 371.71983,213.37368 a 33.551775,33.551775 0 0 0 -30.72656,-22.16796 33.551775,33.551775 0 0 0 -33.44336,25.79882 l -17.76758,7.81446 -26.82031,-40.90625 a 21.56882,21.56882 0 0 0 -18.10547,-9.99805 21.56882,21.56882 0 0 0 -7.19922,1.22852 l -4.64063,-9.54883 6.78516,-9.54688 a 2.1568998,2.1568998 0 0 0 0.13867,-2.27734 L 172.49522,29.274068 a 2.1568998,2.1568998 0 0 0 -1.95313,-1.128907 z m 150.54688,80.933595 c -9.7242,3.1e-4 -18.01439,3.54511 -24.86719,10.63282 -6.8533,7.08839 -10.2793,15.80398 -10.2793,26.14648 0,10.33145 3.426,19.0392 10.2793,26.12695 6.8528,7.08832 15.14299,10.63307 24.86719,10.63282 9.7351,2.5e-4 18.11708,-3.5445 25.14648,-10.63282 7.0288,-7.08775 10.54267,-15.7955 10.54297,-26.12695 -3e-4,-10.3425 -3.51417,-19.05809 -10.54297,-26.14648 -7.0294,-7.08771 -15.41138,-10.63251 -25.14648,-10.63282 z M 218.17881,346.87759 a 10.001,10.001 0 1 0 0,20 h 24.66797 a 10.001,10.001 0 1 0 0,-20 z m 52,0 a 10.001,10.001 0 1 0 0,20 h 24.66797 a 10.001,10.001 0 1 0 0,-20 z m -54.14062,23.85938 a 10.001,10.001 0 0 0 -9.85938,10.13086 l -0.1582,165.66211 a 10.001,10.001 0 1 0 20,0.0195 l 0.1582,-165.66211 a 10.001,10.001 0 0 0 -10.14062,-10.15039 z m 40,0 a 10.001,10.001 0 0 0 -9.85938,10.13086 l -0.1582,165.66211 a 10.001,10.001 0 1 0 20,0.0195 l 0.1582,-165.66211 a 10.001,10.001 0 0 0 -10.14062,-10.15039 z m 40,0 a 10.001,10.001 0 0 0 -9.85938,10.13086 l -0.1582,165.66211 a 10.001,10.001 0 1 0 20,0.0195 l 0.1582,-165.66211 a 10.001,10.001 0 0 0 -10.14062,-10.15039 z"
         id="path1594" />
    </symbol>
  </defs>
  <sodipodi:namedview
     id="base"
     pagecolor="#ffffff"
     bordercolor="#666666"
     borderopacity="1.0"
     inkscape:pageopacity="0.0"
     inkscape:pageshadow="2"
     inkscape:zoom="3.0900566"
     inkscape:cx="66.274919"
     inkscape:cy="-2.6387883"
     inkscape:document-units="px"
     inkscape:current-layer="layer2"
     inkscape:document-rotation="0"
     showgrid="false"
     units="px"
     inkscape:window-width="1306"
     inkscape:window-height="704"
     inkscape:window-x="60"
     inkscape:window-y="27"
     inkscape:window-maximized="1" />
  <metadata
     id="metadata5">
    <rdf:RDF>
      <cc:Work
         rdf:about="">
        <dc:format>image/svg+xml</dc:format>
        <dc:type
           rdf:resource="http://purl.org/dc/dcmitype/StillImage" />
        <dc:title></dc:title>
      </cc:Work>
    </rdf:RDF>
  </metadata>
  <g
     inkscape:groupmode="layer"
     id="layer2"
     inkscape:label="bg" />
  <g
     inkscape:label="trophy"
     inkscape:groupmode="layer"
     id="layer1">
    <g
       id="g10880"
       transform="matrix(1.1974153,0,0,1.1555628,0.93901531,0.68007039)">
      <g
         id="g10846"
         style="fill:#ff6600">
        <path
           style="fill:#ff6600;stroke:#ff6600;stroke-width:0.295678"
           id="path10832"
           sodipodi:type="arc"
           sodipodi:cx="4.3267994"
           sodipodi:cy="1.436411"
           sodipodi:rx="2.2963188"
           sodipodi:ry="4.1114898"
           sodipodi:start="6.2626182"
           sodipodi:end="3.1590781"
           sodipodi:arc-type="slice"
           d="M 6.6226325,1.3518555 A 2.2963188,4.1114898 0 0 1 5.4905995,4.9807499 2.2963188,4.1114898 0 0 1 3.1691052,4.9871544 2.2963188,4.1114898 0 0 1 2.0308317,1.3645235 L 4.3267994,1.436411 Z" />
        <path
           style="fill:#ff6600;stroke:#ff6600;stroke-width:0.528568px;stroke-linecap:butt;stroke-linejoin:miter;stroke-opacity:1"
           d="M 4.3651303,5.5282899 4.3645319,7.3714898"
           id="path10836"
           sodipodi:nodetypes="cc" />
        <rect
           style="fill:#ff6600;stroke:none;stroke-width:0.139741"
           id="rect10838"
           width="2.0314708"
           height="0.52916664"
           x="3.3882747"
           y="7.2161474"
           rx="0.084062353"
           ry="0.12116088" />
        <rect
           style="fill:#ff6600;stroke:none;stroke-width:0.343801"
           id="rect10840"
           width="2.9104166"
           height="0.76000881"
           x="2.8926895"
           y="7.6104751"
           ry="0.11626465"
           rx="0.054655384" />
      </g>
      <path
         style="fill:none;stroke:#ff6600;stroke-width:0.240015px;stroke-linecap:butt;stroke-linejoin:miter;stroke-opacity:1"
         d="m 6.508682,1.8270208 c 0,0 0.9467261,-0.1870389 1.2395981,0.2162768 C 8.2818795,2.7781206 7.2397158,3.4172735 6.6604769,3.8352921 6.4644938,3.976727 6.0495642,4.2192488 6.0495642,4.2192488"
         id="path10851"
         sodipodi:nodetypes="cssc" />
      <path
         style="fill:none;stroke:#ff6600;stroke-width:0.228938px;stroke-linecap:butt;stroke-linejoin:miter;stroke-opacity:1"
         d="m 2.1252955,1.770273 c 0,0 -0.8613581,-0.1870389 -1.12782135,0.2162768 -0.48548386,0.734823 0.44256575,1.3898006 0.98971405,1.7919945 0.1662141,0.1221795 0.5771512,0.3957583 0.5771512,0.3957583"
         id="path10853"
         sodipodi:nodetypes="cssc" />
    </g>
    <text
       xml:space="preserve"
       style="font-style:normal;font-variant:normal;font-weight:bold;font-stretch:normal;font-size:7.76111px;line-height:1.25;font-family:'Arial Rounded MT Bold';-inkscape-font-specification:'Arial Rounded MT Bold,  Bold';font-variant-ligatures:normal;font-variant-caps:normal;font-variant-numeric:normal;text-align:start;letter-spacing:0px;word-spacing:0px;writing-mode:lr-tb;text-anchor:start;fill:#ffffff;fill-opacity:1;stroke:none;stroke-width:0.264583"
       x="11.5707"
       y="8.6410923"
       id="text10884"><tspan
         sodipodi:role="line"
         id="tspan10882"
         x="11.5707"
         y="8.6410923"
         style="font-style:normal;font-variant:normal;font-weight:bold;font-stretch:normal;font-size:7.76111px;font-family:System-ui;-inkscape-font-specification:'System-ui Bold';fill:#ffffff;stroke-width:0.264583">Trophy</tspan></text>
  </g>
</svg>
